<svg width="31" height="41" viewBox="0 0 31 41" fill="none" xmlns="http://www.w3.org/2000/svg">
<path d="M26.8304 17.5704C26.3868 17.5704 25.9625 17.6539 25.5713 17.8045C25.1387 16.3533 23.7926 15.2919 22.2027 15.2919C21.7453 15.2919 21.3086 15.3806 20.9075 15.5402C20.44 14.1474 19.1233 13.1407 17.575 13.1407C17.1861 13.1407 16.8122 13.205 16.4623 13.3222V9.60097C16.4623 7.66284 14.8854 6.08594 12.9472 6.08594C11.009 6.08594 9.43221 7.66276 9.43221 9.60097V24.8048L8.05935 22.767L8.02748 22.7274C6.68208 21.055 4.31521 20.6834 2.52202 21.863C1.58439 22.4799 0.949129 23.4261 0.733318 24.5275C0.519029 25.621 0.74533 26.7291 1.37058 27.6503L7.48903 37.2947L7.51313 37.3313C9.09099 39.6286 11.6967 41.0001 14.4837 41.0001H21.3505C26.3104 41.0001 30.3454 36.9649 30.3454 32.0051V21.0855C30.3454 19.1472 28.7686 17.5704 26.8304 17.5704ZM27.9431 32.0051C27.9431 35.6404 24.9856 38.5977 21.3505 38.5977H14.4837C12.4954 38.5977 10.6361 37.6228 9.5054 35.9886L3.38847 26.3466L3.36437 26.31C3.09739 25.9213 3.00033 25.4524 3.09098 24.9896C3.18171 24.5269 3.44861 24.1292 3.84259 23.8701C4.58364 23.3825 5.55779 23.5257 6.12762 24.199L11.8348 32.6709V9.60105C11.8348 8.98757 12.3339 8.48836 12.9475 8.48836C13.561 8.48836 14.0602 8.98749 14.0602 9.60105V21.6044H16.4625V16.6557C16.4625 16.0422 16.9616 15.543 17.5752 15.543C18.1888 15.543 18.6879 16.0421 18.6879 16.6557V21.6044H21.0902V18.8068C21.0902 18.1933 21.5893 17.6941 22.2029 17.6941C22.8165 17.6941 23.3156 18.1933 23.3156 18.8068V21.6044H25.7179V21.1803V21.0855C25.7179 20.4719 26.2171 19.9727 26.8306 19.9727C27.4442 19.9727 27.9433 20.4718 27.9433 21.0855V32.0051H27.9431Z" fill="white"/>
<path d="M14.0814 0H11.6791V3.32324H14.0814V0Z" fill="white"/>
<path d="M17.8608 1.41879L15.6223 3.875L17.3979 5.49322L19.6364 3.03701L17.8608 1.41879Z" fill="white"/>
<path d="M21.4736 6.62879L18.1647 6.93652L18.3871 9.32853L21.6961 9.0208L21.4736 6.62879Z" fill="white"/>
<path d="M7.82587 1.41743L6.05029 3.03564L8.28883 5.49185L10.0644 3.87363L7.82587 1.41743Z" fill="white"/>
<path d="M4.21306 6.62972L3.9906 9.02173L7.29955 9.32946L7.52201 6.93745L4.21306 6.62972Z" fill="white"/>
</svg>
