<svg width="16" height="20" viewBox="0 0 16 20" fill="none" xmlns="http://www.w3.org/2000/svg">
<path d="M7.51246 19.7391C7.62113 19.9021 7.8041 20 8 20C8.1959 20 8.37887 19.9021 8.48754 19.7391C9.87422 17.6591 11.9167 15.0903 13.34 12.4778C14.478 10.3889 15.0312 8.60727 15.0312 7.03125C15.0312 3.15422 11.877 0 8 0C4.12297 0 0.96875 3.15422 0.96875 7.03125C0.96875 8.60727 1.52199 10.3889 2.66004 12.4778C4.08227 15.0883 6.12863 17.6634 7.51246 19.7391ZM8 1.17188C11.2309 1.17188 13.8594 3.80039 13.8594 7.03125C13.8594 8.40641 13.3529 10.0046 12.3109 11.9171C11.0841 14.1691 9.33336 16.4534 8 18.3738C6.66684 16.4537 4.91602 14.1692 3.6891 11.9171C2.64715 10.0046 2.14062 8.40641 2.14062 7.03125C2.14062 3.80039 4.76914 1.17188 8 1.17188Z" fill="#FFCC29"/>
<path d="M8 10.5469C9.93852 10.5469 11.5156 8.96977 11.5156 7.03125C11.5156 5.09273 9.93852 3.51562 8 3.51562C6.06148 3.51562 4.48438 5.09273 4.48438 7.03125C4.48438 8.96977 6.06148 10.5469 8 10.5469ZM8 4.6875C9.29234 4.6875 10.3438 5.73891 10.3438 7.03125C10.3438 8.32359 9.29234 9.375 8 9.375C6.70766 9.375 5.65625 8.32359 5.65625 7.03125C5.65625 5.73891 6.70766 4.6875 8 4.6875Z" fill="#FFCC29"/>
</svg>
