<svg width="150" height="52" viewBox="0 0 150 52" fill="none" xmlns="http://www.w3.org/2000/svg">
<path fill-rule="evenodd" clip-rule="evenodd" d="M0.0206032 49.6635C0.0206032 49.3662 0.206043 49.1244 0.439559 49.1244H40.8791C41.1127 49.1244 41.2981 49.3662 41.2981 49.6635C41.2981 49.9606 41.1127 50.2025 40.8791 50.2025H0.439559C0.206043 50.2025 0.0206032 49.9606 0.0206032 49.6635Z" fill="#FFCC29"/>
<path fill-rule="evenodd" clip-rule="evenodd" d="M108.702 49.6635C108.702 49.3662 108.887 49.1244 109.121 49.1244H149.56C149.794 49.1244 149.98 49.3662 149.98 49.6635C149.98 49.9606 149.794 50.2025 149.56 50.2025H109.121C108.887 50.2025 108.702 49.9606 108.702 49.6635Z" fill="#FFCC29"/>
<path d="M63.1458 24.7695V36.5945C63.1458 38.7369 63.393 39.7667 64.8006 40.4855H52.8091C54.217 39.7736 54.4643 38.7439 54.4643 36.5945L54.4231 23.7052C54.4094 19.1093 49.739 21.8254 49.739 25.274V36.5945C49.739 38.7369 49.9863 39.7667 51.3943 40.4855H39.4025C40.8104 39.7736 41.0577 38.7439 41.0577 36.5945L41.0165 23.7052C41.0027 18.7776 36.0508 22.2332 36.0508 25.8892V36.6014C36.0508 38.7439 36.2981 39.7736 37.706 40.4923H25.9135C27.3214 39.7805 27.5687 38.7507 27.5687 36.6014V22.8828C27.5687 20.7611 27.3214 19.7313 25.9547 19.0195H35.8723V22.3368C37.5755 17.0083 46.9094 17.347 49.217 22.3437C52.5481 15.6399 63.1458 18.2661 63.1458 24.7695Z" fill="#39373A"/>
<path d="M93.6882 20.6989H91.2432C95.4396 17.9137 99.1344 14.4305 102.17 10.4151V19.0195H108.496C107.726 19.6069 106.943 20.1667 106.14 20.6989H102.177V31.2038C102.177 36.1315 102.651 38.654 108.194 37.175L108.208 37.2026C106.566 40.1606 101.792 41.2249 98.2008 39.9326C95.6046 38.9995 93.6948 36.2697 93.6948 32.745L93.6882 20.6989Z" fill="#39373A"/>
<path d="M110.783 20.6989H108.338C112.534 17.9137 116.23 14.4305 119.265 10.4151V19.0195H125.597C124.828 19.6069 124.045 20.1667 123.235 20.6989H119.258V31.2038C119.258 36.1315 119.739 38.661 125.288 37.1751L125.302 37.1958C123.661 40.1606 118.888 41.225 115.288 39.9395C112.693 39.0065 110.783 36.2766 110.783 32.7519V20.6989Z" fill="#39373A"/>
<path d="M12.3832 35.6407L12.3901 28.6466C11.5522 29.7801 10.3846 30.5403 9.07278 31.3005C6.1401 33.0076 7.73352 37.479 10.0824 37.479C11.2088 37.479 12.3832 36.5391 12.3832 35.6407ZM23.9767 37.1127C21.7651 41.6327 13.8118 41.7225 12.9052 36.8363C11.5316 40.3472 6.51786 41.2525 3.23489 39.8289C-1.35989 37.8453 -0.892856 30.8029 3.79121 29.6833C6.35304 29.0682 9.80772 29.4552 11.9025 27.4717C12.1841 27.2022 12.3832 26.8774 12.3832 26.3452V23.6775C12.3832 20.1874 9.375 19.835 8.17308 20.9062C7.52748 21.4798 7.47942 22.6201 8.11812 23.173C10.3297 25.0805 9.2445 27.4717 7.06728 28.2527C4.27884 29.2548 2.0261 27.914 1.34615 25.7301C0.810436 24.0093 1.19505 21.6664 3.53709 20.1943C5.82417 18.7637 9.14838 18.4389 11.3118 18.4389C15.0206 18.4389 20.9066 20.0423 20.9066 24.6728V34.8459C20.9066 38.0043 22.8022 37.7071 23.9767 37.1127Z" fill="#39373A"/>
<path d="M138.18 20.2358C134.038 20.2428 133.366 38.73 138.18 38.73C142.994 38.7231 142.328 20.2428 138.18 20.2358ZM138.18 40.4233C122.239 40.4233 122.665 18.4942 138.18 18.4942C153.695 18.4942 154.128 40.4233 138.18 40.4233Z" fill="#39373A"/>
<path d="M79.2516 35.6407L79.2582 28.6466C78.4206 29.7801 77.253 30.5403 75.9408 31.3005C73.008 33.0076 74.6016 37.479 76.9506 37.479C78.0768 37.479 79.2516 36.5391 79.2516 35.6407ZM90.8514 37.1127C88.6404 41.6327 80.6934 41.7225 79.7802 36.8363C78.4068 40.3472 73.3926 41.2525 70.1028 39.8289C65.508 37.8453 65.9754 30.8029 70.6596 29.6833C73.221 29.0682 76.6758 29.4552 78.7704 27.4717C79.0524 27.2022 79.2516 26.8774 79.2516 26.3452V23.6775C79.2516 20.1874 76.2432 19.835 75.0414 20.9062C74.3958 21.4798 74.3478 22.6201 74.9862 23.173C77.1978 25.0805 76.1124 27.4717 73.9356 28.2527C71.1468 29.2548 68.8944 27.914 68.214 25.7301C67.6788 24.0093 68.0634 21.6664 70.4052 20.1943C72.6924 18.7637 76.0164 18.4389 78.1728 18.4389C81.882 18.4389 87.768 20.0423 87.768 24.6728V34.8459C87.7746 38.0043 89.6706 37.7071 90.8514 37.1127Z" fill="#39373A"/>
<path fill-rule="evenodd" clip-rule="evenodd" d="M130.81 7.3258H134.458C136.463 7.3258 138.104 8.97756 138.104 10.9956C138.104 13.0137 136.463 14.6654 134.458 14.6654H123.509V3.65599C123.509 1.74852 124.979 0.165867 126.834 0H127.48C129.334 0.165867 130.804 1.74852 130.804 3.65599V7.3258H130.81Z" fill="#FFCC29"/>
<path d="M48.4066 51.6469C48.2692 51.4465 48.1387 51.2599 48.022 51.0871C47.8984 50.9143 47.7816 50.7416 47.6648 50.5757L47.081 49.7325H46.7926V48.9239H47.0673L47.5893 48.2329C47.7129 48.0669 47.8366 47.908 47.9602 47.7421C48.0838 47.5832 48.2212 47.3896 48.386 47.1754H49.5673C49.375 47.4104 49.1827 47.6454 49.0042 47.8734C48.8187 48.1015 48.6332 48.3296 48.4547 48.5646L47.7541 49.4354L47.7335 48.9792L48.5165 50.0643C48.6332 50.2301 48.7637 50.4098 48.9011 50.6033C49.0385 50.7969 49.1758 50.9834 49.3063 51.1631C49.4368 51.3429 49.5536 51.5018 49.6498 51.64H48.4066V51.6469ZM45.8516 51.6469C45.8516 51.405 45.8516 51.1769 45.8516 50.9489C45.8516 50.7208 45.8516 50.472 45.8516 50.1887V48.6752C45.8516 48.3849 45.8516 48.1291 45.8516 47.8942C45.8516 47.6592 45.8516 47.4242 45.8516 47.1823H46.875C46.875 47.4242 46.875 47.6661 46.875 47.8942C46.875 48.1222 46.875 48.3849 46.875 48.6752V50.1887C46.875 50.472 46.875 50.7208 46.875 50.9489C46.875 51.1769 46.875 51.405 46.875 51.6469H45.8516Z" fill="#39373A"/>
<path d="M54.1759 51.6469C54.1759 51.405 54.1759 51.1769 54.1759 50.9488C54.1759 50.7208 54.1759 50.472 54.1759 50.1887V48.6751C54.1759 48.3848 54.1759 48.1291 54.1759 47.8941C54.1759 47.6592 54.1759 47.4242 54.1759 47.1823H55.2198C55.2198 47.4242 55.2198 47.6661 55.2198 47.8941C55.2198 48.1222 55.2198 48.3848 55.2198 48.6751V50.1887C55.2198 50.472 55.2198 50.7208 55.2198 50.9488C55.2198 51.1769 55.2198 51.405 55.2198 51.6469H54.1759Z" fill="#39373A"/>
<path d="M61.1334 51.6469C61.1334 51.405 61.1334 51.1769 61.1334 50.9489C61.1334 50.7208 61.1334 50.472 61.1334 50.1887V48.8341C61.1334 48.5438 61.1334 48.2881 61.1334 48.0531C61.1334 47.8251 61.1334 47.5832 61.1334 47.3413L61.518 48.0739H60.927C60.6936 48.0739 60.4878 48.0739 60.3024 48.0739C60.1236 48.0739 59.9519 48.0739 59.7871 48.0739V47.1754H63.489V48.0739C63.324 48.0739 63.1596 48.0739 62.9742 48.0739C62.7954 48.0739 62.5824 48.0739 62.349 48.0739H61.758L62.1498 47.3413C62.1498 47.5832 62.1498 47.8251 62.1498 48.0531C62.1498 48.2881 62.1498 48.5438 62.1498 48.8341V50.1887C62.1498 50.472 62.1498 50.7208 62.1498 50.9489C62.1498 51.1769 62.1498 51.405 62.1498 51.6469H61.1334Z" fill="#39373A"/>
<path d="M70.0482 51.7298C69.684 51.7298 69.3612 51.6746 69.0726 51.564C68.7846 51.4534 68.5368 51.2944 68.331 51.0871C68.1252 50.8798 67.9668 50.6379 67.8642 50.3545C67.7538 50.0712 67.7058 49.7602 67.7058 49.4146C67.7058 48.9654 67.7952 48.5646 67.974 48.219C68.1522 47.8665 68.4132 47.5901 68.7498 47.3896C69.0864 47.1892 69.492 47.0925 69.9654 47.0925C70.11 47.0925 70.254 47.0994 70.3914 47.1201C70.5288 47.1408 70.6662 47.1616 70.797 47.1961C70.9272 47.2307 71.0442 47.2653 71.154 47.2998C71.2638 47.3413 71.3598 47.3827 71.4492 47.4311L71.3736 48.3918C71.2086 48.2881 71.0574 48.2051 70.9068 48.1429C70.7556 48.0808 70.611 48.0393 70.4736 48.0116C70.3368 47.984 70.206 47.9702 70.0824 47.9702C69.828 47.9702 69.6018 48.0255 69.4092 48.1361C69.21 48.2466 69.0588 48.4125 68.9424 48.6267C68.8326 48.841 68.7708 49.1036 68.7708 49.4146C68.7708 49.615 68.7978 49.8017 68.8596 49.9744C68.9148 50.1472 69.0042 50.3062 69.1206 50.4444C69.2376 50.5826 69.3816 50.6863 69.5604 50.7623C69.7392 50.8383 69.945 50.8798 70.1784 50.8798C70.275 50.8798 70.3776 50.8728 70.4736 50.859C70.5702 50.8452 70.6728 50.8245 70.7694 50.7968C70.8654 50.7692 70.9686 50.7277 71.0646 50.6793C71.1606 50.631 71.2638 50.5688 71.3598 50.4927L71.415 51.4396C71.3256 51.488 71.2296 51.5363 71.1198 51.5709C71.0094 51.6054 70.8996 51.64 70.7832 51.6607C70.6662 51.6884 70.5426 51.7022 70.419 51.716C70.2954 51.7298 70.1718 51.7298 70.0482 51.7298Z" fill="#39373A"/>
<path d="M78.8874 51.6469C78.8874 51.405 78.8874 51.1769 78.8874 50.9488C78.8874 50.7208 78.8874 50.472 78.8874 50.1887V48.6751C78.8874 48.3848 78.8874 48.1291 78.8874 47.8941C78.8874 47.6592 78.8874 47.4242 78.8874 47.1823H79.9176C79.9176 47.4242 79.9176 47.6661 79.9176 47.8941C79.9176 48.1222 79.9176 48.3848 79.9176 48.6751V50.1887C79.9176 50.472 79.9176 50.7208 79.9176 50.9488C79.9176 51.1769 79.9176 51.405 79.9176 51.6469H78.8874ZM76.1196 51.6469C76.1196 51.405 76.1196 51.1769 76.1196 50.9488C76.1196 50.7208 76.1196 50.472 76.1196 50.1887V48.6751C76.1196 48.3848 76.1196 48.1291 76.1196 47.8941C76.1196 47.6592 76.1196 47.4242 76.1196 47.1823H77.1426C77.1426 47.4242 77.1426 47.6661 77.1426 47.8941C77.1426 48.1222 77.1426 48.3848 77.1426 48.6751V50.1887C77.1426 50.472 77.1426 50.7208 77.1426 50.9488C77.1426 51.1769 77.1426 51.405 77.1426 51.6469H76.1196ZM76.8612 49.8292V48.9723H79.1826V49.8292H76.8612Z" fill="#39373A"/>
<path d="M84.7458 51.6469C84.7458 51.405 84.7458 51.1769 84.7458 50.9488C84.7458 50.7208 84.7458 50.472 84.7458 50.1887V48.6751C84.7458 48.3848 84.7458 48.1291 84.7458 47.8941C84.7458 47.6592 84.7458 47.4242 84.7458 47.1823H87.6852V48.0186C87.4932 48.0186 87.2868 48.0186 87.0744 48.0186C86.8542 48.0186 86.6004 48.0186 86.3052 48.0186H85.2612L85.7484 47.3413C85.7484 47.5832 85.7484 47.825 85.7484 48.0531C85.7484 48.2881 85.7484 48.5438 85.7484 48.8341V50.0228C85.7484 50.2992 85.7484 50.555 85.7484 50.7761C85.7484 51.0042 85.7484 51.2391 85.7484 51.4741L85.323 50.7968H86.3736C86.6208 50.7968 86.8542 50.7968 87.0744 50.7968C87.294 50.7968 87.507 50.7968 87.7128 50.7968V51.6331H84.7458V51.6469ZM85.5084 49.7878V49.0069H86.3184C86.5932 49.0069 86.8266 49.0069 87.0192 49.0069C87.2112 49.0069 87.3972 49.0069 87.5826 49.0069V49.7878C87.39 49.7878 87.198 49.7878 87.0054 49.7878C86.8134 49.7878 86.5794 49.7878 86.3118 49.7878H85.5084Z" fill="#39373A"/>
<path d="M92.4108 51.6469C92.4108 51.405 92.4108 51.177 92.4108 50.9489C92.4108 50.7208 92.4108 50.472 92.4108 50.1887V48.6751C92.4108 48.3848 92.4108 48.1291 92.4108 47.8941C92.4108 47.6592 92.4108 47.4242 92.4108 47.1823H93.3036C93.5094 47.4864 93.7086 47.7767 93.894 48.0462C94.0794 48.3158 94.2654 48.5853 94.4508 48.8617L95.172 49.9122H95.247V48.6821C95.247 48.3918 95.247 48.1361 95.247 47.9011C95.247 47.6661 95.247 47.4311 95.247 47.1892H96.2088C96.2088 47.4311 96.2088 47.673 96.2088 47.9011C96.2088 48.1291 96.2088 48.3918 96.2088 48.6821V50.1956C96.2088 50.4789 96.2088 50.7277 96.2088 50.9558C96.2088 51.1838 96.2088 51.4119 96.2088 51.6538H95.3226C95.151 51.405 94.9728 51.1424 94.7868 50.8728C94.6014 50.6033 94.3956 50.3062 94.176 49.9813L93.4476 48.917H93.3792V50.1956C93.3792 50.4789 93.3792 50.7277 93.3792 50.9558C93.3792 51.1838 93.3792 51.4119 93.3792 51.6538H92.4108V51.6469Z" fill="#39373A"/>
<path d="M102.445 51.7298C102.26 51.7298 102.074 51.716 101.875 51.6815C101.683 51.6538 101.497 51.6123 101.332 51.564C101.161 51.5156 101.023 51.4672 100.921 51.4119L100.996 50.5065C101.14 50.5895 101.291 50.6586 101.449 50.7139C101.607 50.7692 101.765 50.8176 101.916 50.8452C102.067 50.8728 102.225 50.8936 102.362 50.8936C102.507 50.8936 102.631 50.8728 102.733 50.8383C102.836 50.8038 102.919 50.7485 102.981 50.6793C103.036 50.6102 103.07 50.5135 103.07 50.396C103.07 50.2785 103.036 50.1817 102.96 50.1057C102.884 50.0297 102.775 49.9606 102.637 49.9053C102.493 49.85 102.328 49.7947 102.136 49.7325C101.868 49.6496 101.635 49.5597 101.442 49.4561C101.25 49.3524 101.106 49.2142 101.003 49.0483C100.9 48.8824 100.852 48.6682 100.852 48.4056C100.852 48.143 100.907 47.9149 101.023 47.7145C101.14 47.5141 101.312 47.362 101.539 47.2445C101.772 47.134 102.061 47.0786 102.41 47.0786C102.548 47.0786 102.692 47.0855 102.83 47.1063C102.967 47.127 103.105 47.1478 103.235 47.1754C103.366 47.203 103.489 47.2376 103.599 47.2722C103.709 47.3136 103.812 47.3482 103.894 47.3896L103.819 48.295C103.688 48.2121 103.544 48.143 103.406 48.0876C103.262 48.0324 103.125 47.9909 102.988 47.9564C102.85 47.9287 102.727 47.9149 102.617 47.9149C102.493 47.9149 102.376 47.9287 102.274 47.9633C102.17 47.9978 102.088 48.0462 102.026 48.1153C101.964 48.1844 101.937 48.2674 101.937 48.3779C101.937 48.4816 101.964 48.5646 102.026 48.6336C102.081 48.7028 102.17 48.7649 102.294 48.8202C102.41 48.8756 102.569 48.9309 102.754 48.9861C103.111 49.0898 103.386 49.2004 103.592 49.3179C103.798 49.4354 103.942 49.5736 104.032 49.7394C104.114 49.9053 104.162 50.1057 104.162 50.3545C104.162 50.631 104.1 50.866 103.984 51.0663C103.867 51.2668 103.681 51.4258 103.427 51.5433C103.166 51.6746 102.844 51.7298 102.445 51.7298Z" fill="#39373A"/>
<path fill-rule="evenodd" clip-rule="evenodd" d="M48.1653 46.7273H50.5132L49.9141 47.4593C49.7212 47.695 49.5321 47.9262 49.357 48.1497L49.3519 48.1562C49.1657 48.3853 48.9849 48.6076 48.8115 48.8357L48.804 48.8456L48.4801 49.2479L48.883 49.8063C48.9479 49.8985 49.0141 49.991 49.0844 50.089C49.142 50.1692 49.2022 50.2532 49.2665 50.3439M48.3556 47.9632C48.4472 47.8483 48.539 47.7351 48.6297 47.6236H48.6089C48.5778 47.6652 48.5475 47.706 48.5177 47.7463L48.5139 47.7515C48.4602 47.8239 48.4071 47.8956 48.3556 47.9632ZM47.3958 47.7453C47.4033 47.7355 47.4107 47.7258 47.4181 47.716C47.4801 47.6346 47.5407 47.5551 47.6008 47.4743L47.6064 47.4669C47.6643 47.3924 47.7263 47.3089 47.7975 47.2127C47.8677 47.118 47.9456 47.0129 48.0308 46.9021L48.1653 46.7273M47.3958 47.7453L47.3232 47.6446V46.7342H45.4035V52.0951H47.3232V50.8692C47.3591 50.9206 47.397 50.9751 47.436 51.0314C47.507 51.134 47.5816 51.2417 47.654 51.343C47.726 51.4495 47.8046 51.5633 47.8854 51.6803C47.9355 51.7528 47.9863 51.8265 48.037 51.9003L48.8548 53.093V52.0882H50.5074L50.0177 51.3841C49.9381 51.2697 49.8447 51.1414 49.7451 51.0045C49.7201 50.9701 49.6947 50.9352 49.669 50.8998C49.6334 50.8508 49.5976 50.8018 49.5618 50.7527C49.4641 50.6187 49.3657 50.4836 49.2665 50.3439M48.6374 51.1919C48.6311 51.1827 48.6248 51.1737 48.6185 51.1646C48.539 51.0494 48.4643 50.9413 48.3933 50.8362L48.3865 50.8264C48.314 50.7251 48.2484 50.6302 48.1814 50.5334C48.1334 50.464 48.0847 50.3936 48.0323 50.3192L47.8408 50.0426L47.8974 49.9722L48.1516 50.3244C48.2158 50.4157 48.2872 50.5153 48.3605 50.6175C48.4185 50.6985 48.4777 50.7811 48.5356 50.8627C48.6151 50.9747 48.695 51.085 48.7729 51.1919H48.6374ZM46.4269 48.4757V47.6311L46.2998 47.6305V51.1981L46.4269 51.1988V50.1807H46.3444V48.4758L46.4269 48.4757Z" fill="#39373A"/>
<path fill-rule="evenodd" clip-rule="evenodd" d="M53.7277 46.7342H55.6679V52.0951H53.7277V46.7342ZM54.624 47.6308V51.1981L54.7716 51.1988V47.6311L54.624 47.6308Z" fill="#39373A"/>
<path fill-rule="evenodd" clip-rule="evenodd" d="M60.6852 46.7273H59.339V48.522H60.6845L60.6852 52.0951H62.5979V48.523L63.9371 48.522V46.7273H62.5979V45.553L61.97 46.7273H61.3172L60.6852 45.5235V46.7273ZM60.6852 47.6253V47.6239L60.2353 47.6236V47.6257L60.6852 47.6253ZM61.5815 48.523V51.1981L61.7016 51.1988V48.523H61.5815ZM62.5979 47.6257V47.6239L63.0408 47.6236V47.6257H62.5979Z" fill="#39373A"/>
<path fill-rule="evenodd" clip-rule="evenodd" d="M69.7502 47.5488C69.4387 47.5732 69.1855 47.6518 68.9791 47.7747C68.7143 47.9324 68.5131 48.1459 68.3739 48.4212L68.372 48.4249C68.2312 48.6972 68.1539 49.0253 68.1539 49.4146C68.1539 49.7188 68.1962 49.9722 68.2818 50.1918L68.2857 50.2019C68.3649 50.4207 68.4866 50.6077 68.6491 50.7714C68.8074 50.9309 69.0005 51.0563 69.2332 51.1456C69.3327 51.1837 69.4393 51.2144 69.5541 51.2368C69.4964 51.2188 69.44 51.1981 69.3851 51.1747C69.1475 51.0737 68.9445 50.93 68.7785 50.7338L68.7778 50.7331C68.6268 50.5537 68.5089 50.3459 68.4351 50.1181C68.3544 49.8895 68.3226 49.6526 68.3226 49.4146C68.3226 49.0441 68.3964 48.7094 68.5436 48.4223L68.5485 48.4128C68.6971 48.1392 68.9033 47.9051 69.1888 47.7458C69.3633 47.6461 69.5522 47.5818 69.7502 47.5488ZM70.5565 47.6012C70.6008 47.6097 70.6424 47.6188 70.6826 47.6294L70.6901 47.6011C70.7838 47.6246 70.8803 47.6538 70.9793 47.6903L70.9774 47.7142C70.8854 47.6858 70.7888 47.6576 70.6826 47.6294L70.6901 47.6011C70.6902 47.6012 70.6899 47.6011 70.6901 47.6011M71.0073 47.7235C70.9974 47.7204 70.9874 47.7173 70.9774 47.7142L70.9268 48.3566L71.3736 48.3918L71.612 48.0123C71.49 47.9357 71.3693 47.8659 71.2465 47.8053L71.4492 47.4311L71.1208 47.4053L71.154 47.2998L71.1143 47.4048L71.0024 47.396L70.9793 47.6903C70.9872 47.6932 70.9951 47.6962 71.0031 47.6992L71.1143 47.4048L71.1208 47.4053L71.0256 47.7078C71.0428 47.7145 71.06 47.7214 71.0773 47.7285C71.1341 47.752 71.1908 47.7778 71.2465 47.8053L71.2358 47.8252C71.1877 47.7992 71.1341 47.7743 71.0698 47.7481C71.0697 47.748 71.07 47.7482 71.0698 47.7481C71.0502 47.7401 71.029 47.7318 71.0073 47.7235ZM70.5373 51.3026C70.5372 51.3026 70.5373 51.3026 70.5373 51.3026L70.5301 51.2513C70.5853 51.2437 70.6341 51.2355 70.6801 51.2246L70.6922 51.2217L70.7045 51.2196C70.7596 51.2097 70.8143 51.1953 70.878 51.1764C70.8783 51.1763 70.8778 51.1765 70.878 51.1764C70.9004 51.1698 70.9245 51.1624 70.9495 51.1546L70.9527 51.2093C70.9329 51.2157 70.9131 51.2218 70.8934 51.2275C70.8342 51.2444 70.7733 51.2593 70.7138 51.2717C70.7066 51.2732 70.6994 51.2746 70.6923 51.276C70.6395 51.2866 70.5875 51.2954 70.5373 51.3026ZM71.2299 51.0975C71.2421 51.0916 71.2542 51.0856 71.2662 51.0796C71.3837 51.0204 71.5138 50.9425 71.6381 50.844L71.3598 50.4927L70.9124 50.5188L70.9495 51.1546C70.9611 51.151 70.9731 51.1472 70.9855 51.1433C71.0535 51.1219 71.1193 51.09 71.2018 51.0454M68.5205 47.0046C68.9417 46.7538 69.431 46.6443 69.9654 46.6443C70.1228 46.6443 70.2909 46.6517 70.4582 46.677L70.4666 46.6782C70.598 46.698 70.7564 46.7219 70.9114 46.7628C71.0492 46.7994 71.1732 46.8361 71.2885 46.8723L71.3005 46.8761L71.3124 46.8806C71.4331 46.9262 71.5493 46.9757 71.6626 47.0371L71.9188 47.1758L71.7623 49.1652L71.1352 48.7712C70.9826 48.6754 70.855 48.6064 70.7361 48.5573C70.6135 48.5069 70.4967 48.4734 70.3852 48.451C70.2741 48.4285 70.1728 48.4183 70.0824 48.4183C69.8938 48.4183 69.747 48.4589 69.6324 48.5247L69.6267 48.528C69.5165 48.5891 69.4219 48.6845 69.3388 48.8358C69.2677 48.9767 69.2189 49.1658 69.2189 49.4146C69.2189 49.575 69.2405 49.7088 69.2816 49.8234L69.2841 49.8307L69.2865 49.838C69.3231 49.9527 69.383 50.0602 69.463 50.1552C69.5309 50.2354 69.6159 50.2989 69.7357 50.3499C69.8534 50.3999 69.9988 50.4316 70.1784 50.4316C70.2548 50.4316 70.336 50.4261 70.4097 50.4154C70.4892 50.4041 70.5717 50.3872 70.6457 50.3661C70.7114 50.3471 70.7886 50.3166 70.863 50.2791C70.9375 50.2416 71.0138 50.1951 71.0815 50.1415L71.757 49.6061L71.879 51.6981L71.6282 51.8338C71.5321 51.8858 71.4059 51.9506 71.2545 51.9983L71.2416 52.0024C71.1406 52.034 71.0129 52.074 70.8742 52.0997C70.7348 52.1316 70.5935 52.1474 70.4804 52.1601L70.4688 52.1614C70.3201 52.178 70.1752 52.178 70.0573 52.178L70.0482 52.178C69.6382 52.178 69.2598 52.1157 68.9122 51.9824C68.5689 51.8506 68.2662 51.658 68.0129 51.4028C67.765 51.1531 67.5707 50.8579 67.4447 50.5122C67.3109 50.1666 67.2576 49.7996 67.2576 49.4146C67.2576 48.9062 67.3589 48.4333 67.575 48.0149C67.7922 47.5861 68.1127 47.2475 68.5205 47.0046Z" fill="#39373A"/>
<path fill-rule="evenodd" clip-rule="evenodd" d="M75.6714 46.7342H77.5907V48.5241H78.4392V46.7342H80.3657V52.0951H78.4392V50.2774H77.5907V52.0951H75.6714V46.7342ZM76.6944 48.5241V47.6311L76.5677 47.6305V48.5235L76.6944 48.5241ZM76.5677 50.2774H76.6944V51.1981L76.5677 51.1988V50.2774ZM79.3355 50.2774V51.1981L79.4694 51.1988V50.2774H79.3355ZM79.4694 48.5241V47.6311L79.3355 47.6305V48.5235L79.4694 48.5241Z" fill="#39373A"/>
<path fill-rule="evenodd" clip-rule="evenodd" d="M91.9626 46.7342H93.5414L93.6747 46.9312C93.8795 47.2338 94.078 47.5229 94.2632 47.7922C94.2829 47.8208 94.3026 47.8494 94.3223 47.8781C94.48 48.1072 94.6396 48.3392 94.7988 48.5761V46.7411H96.657V52.102H95.0873L94.9537 51.9082C94.8617 51.7748 94.7806 51.6563 94.6986 51.5364C94.611 51.4083 94.5223 51.2786 94.418 51.1274C94.3805 51.0729 94.3416 51.0165 94.3023 50.9594C94.1548 50.7454 93.9951 50.5135 93.8273 50.2658V52.102H91.9626V46.7342ZM92.8589 47.6308V51.2048L92.931 51.2057V48.4689H93.6408C93.6218 48.4413 93.6028 48.4136 93.5838 48.386C93.5641 48.3574 93.5445 48.3288 93.5248 48.3002M94.978 50.3604C94.9986 50.3903 95.0191 50.42 95.0394 50.4495C95.0789 50.5069 95.1177 50.5632 95.1558 50.6186M95.6951 47.6378V50.3604H94.978M92.8589 47.6308L93.0661 47.6305C93.2254 47.8646 93.3795 48.089 93.5248 48.3002" fill="#39373A"/>
<path fill-rule="evenodd" clip-rule="evenodd" d="M101.737 47.6462C101.576 47.7309 101.476 47.8273 101.41 47.94C101.34 48.0611 101.3 48.2087 101.3 48.4056C101.3 48.6182 101.339 48.7407 101.383 48.8116M101.737 47.6462C101.836 47.6004 101.959 47.5647 102.113 47.5447C101.965 47.5967 101.814 47.6794 101.692 47.8165C101.54 47.9864 101.489 48.1851 101.489 48.3779C101.489 48.5645 101.54 48.7577 101.683 48.923C101.799 49.0631 101.954 49.1586 102.106 49.2272C102.253 49.2966 102.436 49.3589 102.626 49.4156L102.629 49.4165C102.966 49.5144 103.205 49.6131 103.37 49.7071C103.517 49.7911 103.592 49.8723 103.634 49.9457C103.679 50.0411 103.714 50.1701 103.714 50.3545C103.714 50.5611 103.668 50.7166 103.596 50.8408C103.534 50.9469 103.427 51.0497 103.239 51.1366L103.232 51.1396L103.226 51.1429C103.148 51.1822 103.055 51.2142 102.945 51.2375C103.089 51.1784 103.214 51.0907 103.315 50.978L103.324 50.9678L103.333 50.9571C103.458 50.7987 103.518 50.6005 103.518 50.396C103.518 50.1838 103.452 49.9651 103.278 49.7897C103.148 49.6592 102.981 49.5606 102.804 49.4895L102.798 49.487C102.642 49.4271 102.467 49.3686 102.274 49.3062L102.269 49.3044C102.015 49.226 101.812 49.1462 101.655 49.0616C101.53 48.9943 101.445 48.91 101.383 48.8116M102.871 51.2512C102.751 51.271 102.61 51.2817 102.445 51.2817C102.418 51.2817 102.39 51.2813 102.362 51.2806C102.228 51.2771 102.094 51.2646 101.952 51.2399L101.939 51.2379C101.908 51.2334 101.877 51.2286 101.847 51.2234C101.709 51.1998 101.577 51.1688 101.458 51.1339L101.454 51.1326C101.433 51.1268 101.413 51.1211 101.395 51.1155L101.422 50.7928L101.442 50.5435L100.996 50.5065L100.773 50.8953C100.881 50.9577 100.994 51.0135 101.109 51.0625L100.921 51.4119L101.367 51.4489L101.391 51.1674C101.407 51.1728 101.423 51.1782 101.439 51.1834C101.441 51.1839 101.442 51.1843 101.443 51.1847C101.569 51.2251 101.702 51.2616 101.835 51.286M102.133 47.5422C102.216 47.5322 102.308 47.5268 102.41 47.5268C102.481 47.5268 102.55 47.5288 102.617 47.5336C102.667 47.5372 102.716 47.5424 102.763 47.5494C102.87 47.5656 102.968 47.5805 103.06 47.5975C103.066 47.5986 103.071 47.5997 103.077 47.6008C103.099 47.6049 103.121 47.6093 103.142 47.6138C103.238 47.6342 103.332 47.6594 103.42 47.6858L103.381 48.1509L103.239 48.5034C103.24 48.5038 103.241 48.5043 103.242 48.5048C103.123 48.459 103.007 48.4238 102.889 48.3937C102.892 48.3944 102.896 48.395 102.899 48.3957L102.988 47.9564L102.878 48.391C102.882 48.3919 102.885 48.3928 102.889 48.3937C102.778 48.3719 102.688 48.3631 102.617 48.3631C102.529 48.3631 102.467 48.3726 102.425 48.3854C102.421 48.3832 102.417 48.3811 102.414 48.379C102.413 48.3788 102.413 48.3786 102.413 48.3784C102.404 48.3732 102.396 48.3685 102.39 48.3643C102.381 48.3576 102.376 48.3533 102.374 48.3519L102.368 48.3442L102.36 48.3348C102.363 48.3389 102.368 48.3447 102.372 48.3522C102.373 48.3533 102.374 48.3544 102.374 48.3555C102.378 48.3618 102.38 48.3681 102.382 48.3738C102.382 48.3742 102.383 48.3745 102.383 48.3749C102.382 48.3759 102.382 48.3769 102.382 48.3779C102.379 48.3835 102.377 48.3896 102.373 48.3959C102.368 48.4038 102.364 48.4099 102.36 48.414C102.359 48.4147 102.359 48.4151 102.359 48.4151C102.359 48.415 102.371 48.4033 102.416 48.3883C102.418 48.3874 102.422 48.3862 102.425 48.3854C102.439 48.3932 102.456 48.4019 102.477 48.4112L102.486 48.4154C102.571 48.4556 102.703 48.5031 102.881 48.5562C102.88 48.556 102.88 48.5559 102.879 48.5557L102.754 48.9861L102.882 48.5566C102.882 48.5565 102.881 48.5563 102.881 48.5562C103.257 48.6655 103.567 48.7878 103.814 48.9285C104.074 49.077 104.288 49.2702 104.426 49.5268L104.43 49.5335L104.433 49.5405C104.55 49.7761 104.61 50.0461 104.61 50.3545C104.61 50.7006 104.532 51.015 104.371 51.2914C104.2 51.5841 103.939 51.799 103.622 51.9469C103.276 52.1194 102.877 52.178 102.445 52.178C102.238 52.178 102.029 52.1626 101.805 52.1241C101.594 52.0935 101.391 52.048 101.208 51.9947C101.029 51.9441 100.854 51.8853 100.708 51.8064L100.45 51.6673L100.607 49.767L101.219 50.1178C101.339 50.1871 101.465 50.2447 101.597 50.2909C101.747 50.3433 101.879 50.3829 101.996 50.4043C102.137 50.43 102.264 50.4455 102.362 50.4455C102.464 50.4455 102.539 50.4308 102.59 50.4136C102.601 50.4098 102.611 50.4055 102.619 50.4016C102.591 50.3799 102.544 50.3511 102.473 50.3223C102.342 50.2723 102.189 50.2207 102.001 50.1598C101.719 50.0725 101.457 49.9729 101.23 49.8507C100.97 49.7106 100.767 49.5184 100.622 49.2851C100.46 49.0242 100.403 48.7182 100.403 48.4056C100.403 48.0775 100.473 47.7691 100.636 47.4894L100.636 47.4885C100.803 47.2023 101.044 46.9958 101.332 46.8466L101.34 46.8429L101.347 46.8395C101.657 46.6926 102.016 46.6305 102.41 46.6305C102.561 46.6305 102.73 46.6379 102.897 46.6632L102.9 46.6637C103.034 46.6839 103.183 46.7064 103.327 46.7369M103.327 46.7369C103.476 46.7683 103.614 46.8071 103.733 46.8447L103.746 46.8484L103.757 46.8529C103.774 46.8592 103.793 46.8661 103.813 46.8737C103.897 46.9043 104.007 46.9448 104.096 46.9895L104.366 47.1257L104.203 49.0713L103.578 48.673C103.478 48.6097 103.361 48.5528 103.242 48.5048C103.244 48.5052 103.245 48.5056 103.246 48.5061L103.381 48.1549L103.372 48.2577L103.819 48.295L104.059 47.9169C103.948 47.8464 103.832 47.7859 103.72 47.7347L103.894 47.3896L103.571 47.3626L103.599 47.2722L103.565 47.3622L103.448 47.3524L103.425 47.6181C103.334 47.5872 103.246 47.5608 103.158 47.5376C103.158 47.5376 103.158 47.5376 103.158 47.5376C103.138 47.5322 103.117 47.5269 103.097 47.5218L103.086 47.5192L103.076 47.5171C102.973 47.4964 102.872 47.4814 102.774 47.4734C102.775 47.4734 102.774 47.4734 102.774 47.4734C102.721 47.4691 102.668 47.4668 102.617 47.4668C102.55 47.4668 102.481 47.4699 102.41 47.4779C102.318 47.4884 102.223 47.5073 102.131 47.5385L102.133 47.5422" fill="#39373A"/>
</svg>
