<svg width="26" height="30" viewBox="0 0 26 30" fill="none" xmlns="http://www.w3.org/2000/svg">
<path d="M15.88 0.599609H10.12C4.576 0.599609 0.0400085 5.13561 0.0400085 10.6796V14.9996C0.0400085 18.8876 2.30801 22.4516 5.8 24.1076V28.9316C5.8 29.3636 6.34 29.5796 6.628 29.2556L10.804 25.0796H15.88C21.424 25.0796 25.96 20.5436 25.96 14.9996V10.6796C25.96 5.13561 21.424 0.599609 15.88 0.599609ZM19.66 19.4996L18.184 20.9396C16.636 22.4516 12.64 20.7236 9.112 17.1236C5.584 13.5236 4.036 9.4916 5.512 7.97961L6.952 6.53961C7.492 5.99961 8.392 6.03561 9.004 6.57561L11.092 8.73561C11.848 9.4916 11.524 10.7876 10.552 11.0756C9.868 11.2916 9.4 12.0476 9.616 12.7316C9.976 14.3156 11.992 16.3316 13.504 16.7276C14.188 16.8716 14.944 16.5116 15.196 15.8276C15.52 14.8556 16.816 14.5676 17.536 15.3236L19.624 17.4836C20.2 17.9876 20.2 18.8876 19.66 19.4996ZM14.296 7.43961C14.152 7.43961 14.008 7.43961 13.864 7.47561C13.612 7.51161 13.36 7.29561 13.324 7.04361C13.288 6.79161 13.504 6.53961 13.756 6.50361C13.936 6.46761 14.116 6.46761 14.296 6.46761C16.924 6.46761 19.084 8.62761 19.084 11.2556C19.084 11.4356 19.084 11.6156 19.048 11.7956C19.012 12.0476 18.76 12.2636 18.508 12.2276C18.256 12.1916 18.04 11.9396 18.076 11.6876C18.076 11.5436 18.112 11.3996 18.112 11.2556C18.148 9.1676 16.42 7.43961 14.296 7.43961ZM17.176 11.2916C17.176 11.5436 16.96 11.7596 16.708 11.7596C16.456 11.7596 16.24 11.5436 16.24 11.2916C16.24 10.2476 15.376 9.38361 14.332 9.38361C14.08 9.38361 13.864 9.1676 13.864 8.9156C13.864 8.6636 14.08 8.44761 14.332 8.44761C15.88 8.41161 17.176 9.70761 17.176 11.2916ZM20.848 12.8396C20.776 13.0916 20.524 13.2716 20.236 13.1996C19.984 13.1276 19.84 12.8756 19.912 12.6236C20.02 12.1916 20.056 11.7596 20.056 11.2916C20.056 8.12361 17.464 5.53161 14.296 5.53161C14.152 5.53161 14.008 5.53161 13.864 5.53161C13.612 5.53161 13.36 5.35161 13.36 5.09961C13.36 4.84761 13.54 4.59561 13.792 4.59561C13.972 4.59561 14.152 4.55961 14.296 4.55961C18.004 4.55961 21.028 7.58361 21.028 11.2916C21.028 11.7956 20.956 12.3356 20.848 12.8396Z" fill="#39373A"/>
</svg>
